<?xml version="1.0" encoding="UTF-8"?><svg id="Layer_3" xmlns="http://www.w3.org/2000/svg" viewBox="0 0 16.5 16.5"><defs><style>.cls-1,.cls-2,.cls-3{fill:none;stroke:#000;stroke-linecap:round;stroke-linejoin:round;}.cls-1,.cls-3{stroke-width:.71px;}.cls-2{stroke-width:.75px;}.cls-3{fill-rule:evenodd;}</style></defs><polyline class="cls-2" points="2.99 8.01 2.99 .74 11.03 .74 13.51 3.3 13.51 8.01"/><rect class="cls-2" x="1.1" y="8.25" width="14.3" height="7.19"/><polyline class="cls-2" points="13.16 3.3 11.03 3.3 11.03 1.33"/><polyline class="cls-3" points="9.99 3.58 11.37 5.31 9.99 6.93"/><polyline class="cls-3" points="6.76 3.58 5.39 5.31 6.76 6.93"/><line class="cls-1" x1="8.86" y1="3.42" x2="7.9" y2="6.99"/><path d="M2.08,12.54l.64-.06c.04.21.12.37.23.47.12.1.28.15.48.15.21,0,.37-.04.48-.13.11-.09.16-.19.16-.31,0-.08-.02-.14-.07-.2-.05-.05-.12-.1-.24-.14-.08-.03-.25-.07-.52-.14-.35-.09-.6-.19-.74-.32-.2-.18-.3-.4-.3-.65,0-.17.05-.32.14-.46.09-.14.23-.25.41-.33.18-.08.39-.11.64-.11.41,0,.71.09.92.27.21.18.31.42.32.72l-.66.03c-.03-.17-.09-.29-.18-.36-.09-.07-.23-.11-.42-.11s-.34.04-.45.12c-.07.05-.1.12-.1.2,0,.08.03.14.1.2.08.07.28.14.6.22.32.08.56.15.71.23.15.08.27.19.36.33.09.14.13.31.13.52,0,.19-.05.36-.16.52s-.25.28-.44.36c-.19.08-.42.12-.71.12-.41,0-.73-.09-.95-.28-.22-.19-.35-.47-.39-.83Z"/><path d="M5.27,13.59v-3.25h.98l.59,2.21.58-2.21h.98v3.25h-.61v-2.56l-.64,2.56h-.63l-.64-2.56v2.56h-.61Z"/><path d="M9.06,10.35h1.3c.26,0,.45.01.58.03.13.02.24.07.34.13.1.07.18.16.25.27.07.11.1.24.1.38,0,.15-.04.29-.12.42s-.19.22-.33.29c.2.06.35.16.46.29s.16.3.16.49c0,.15-.03.29-.1.43-.07.14-.16.25-.28.33-.12.08-.27.13-.44.15-.11.01-.37.02-.79.02h-1.11v-3.25ZM9.71,10.89v.75h.43c.26,0,.42,0,.48-.01.11-.01.2-.05.26-.12.06-.06.1-.15.1-.25s-.03-.18-.08-.25c-.06-.06-.14-.1-.25-.11-.07,0-.25-.01-.56-.01h-.38ZM9.71,12.18v.87h.61c.24,0,.39,0,.45-.02.1-.02.18-.06.24-.13s.09-.16.09-.28c0-.1-.02-.18-.07-.25-.05-.07-.12-.12-.2-.15-.09-.03-.28-.05-.58-.05h-.53Z"/><path d="M14.29,13.01v.58h-2.18c.02-.22.09-.43.21-.62s.35-.46.7-.78c.28-.26.45-.44.52-.53.09-.13.13-.26.13-.38,0-.14-.04-.25-.11-.32s-.18-.11-.31-.11-.23.04-.31.12c-.08.08-.12.21-.13.39l-.62-.06c.04-.34.15-.59.35-.74.2-.15.44-.22.73-.22.32,0,.57.09.75.26.18.17.27.39.27.64,0,.15-.03.29-.08.42-.05.13-.13.27-.25.42-.08.1-.21.23-.41.41-.2.18-.32.3-.37.36-.05.06-.09.12-.13.17h1.24Z"/></svg>