<?xml version="1.0" encoding="UTF-8"?><svg id="Layer_3" xmlns="http://www.w3.org/2000/svg" viewBox="0 0 16.5 16.5"><defs><style>.cls-1,.cls-2,.cls-3{fill:none;stroke:#000;stroke-linecap:round;stroke-linejoin:round;}.cls-1,.cls-3{stroke-width:.71px;}.cls-2{stroke-width:.75px;}.cls-3{fill-rule:evenodd;}</style></defs><polyline class="cls-2" points="2.99 8.01 2.99 .74 11.03 .74 13.51 3.3 13.51 8.01"/><rect class="cls-2" x="1.1" y="8.25" width="14.3" height="7.19"/><polyline class="cls-2" points="13.16 3.3 11.03 3.3 11.03 1.33"/><polyline class="cls-3" points="9.99 3.58 11.37 5.31 9.99 6.93"/><polyline class="cls-3" points="6.76 3.58 5.39 5.31 6.76 6.93"/><line class="cls-1" x1="8.86" y1="3.42" x2="7.9" y2="6.99"/><path d="M3.24,13.97v-4.08h2.8v.69h-1.97v.97h1.7v.69h-1.7v1.73h-.82Z"/><path d="M7.64,13.97v-3.39h-1.21v-.69h3.24v.69h-1.21v3.39h-.82Z"/><path d="M10.2,13.97v-4.08h1.32c.5,0,.83.02.98.06.23.06.43.19.59.4s.24.47.24.79c0,.25-.05.46-.14.63-.09.17-.21.31-.35.4-.14.1-.28.16-.43.19-.2.04-.48.06-.85.06h-.54v1.54h-.82ZM11.02,10.58v1.16h.45c.32,0,.54-.02.65-.06s.2-.11.26-.2c.06-.09.09-.2.09-.32,0-.15-.04-.27-.13-.37-.09-.1-.2-.16-.33-.18-.1-.02-.3-.03-.59-.03h-.4Z"/></svg>