<?xml version="1.0" encoding="UTF-8"?><svg id="Layer_3" xmlns="http://www.w3.org/2000/svg" viewBox="0 0 16.5 16.5"><defs><style>.cls-1,.cls-2,.cls-3{fill:none;stroke:#000;stroke-linecap:round;stroke-linejoin:round;}.cls-1,.cls-3{stroke-width:.71px;}.cls-2{stroke-width:.75px;}.cls-3{fill-rule:evenodd;}</style></defs><polyline class="cls-2" points="2.99 8.01 2.99 .74 11.03 .74 13.51 3.3 13.51 8.01"/><rect class="cls-2" x="1.1" y="8.25" width="14.3" height="7.19"/><polyline class="cls-2" points="13.16 3.3 11.03 3.3 11.03 1.33"/><polyline class="cls-3" points="9.99 3.58 11.37 5.31 9.99 6.93"/><polyline class="cls-3" points="6.76 3.58 5.39 5.31 6.76 6.93"/><line class="cls-1" x1="8.86" y1="3.42" x2="7.9" y2="6.99"/><path d="M2.2,13.38v-2.61h.53v2.17h1.32v.44h-1.85Z"/><path d="M4.32,12.09c0-.27.04-.49.12-.67.06-.13.14-.25.25-.36s.22-.19.34-.24c.16-.07.35-.1.57-.1.39,0,.7.12.93.36.23.24.35.57.35,1s-.12.76-.35,1c-.23.24-.54.36-.93.36s-.7-.12-.93-.36c-.23-.24-.35-.57-.35-.99ZM4.87,12.07c0,.3.07.52.21.68.14.15.31.23.52.23s.39-.08.52-.23.2-.38.2-.69-.07-.53-.2-.67-.31-.22-.53-.22-.4.08-.53.23c-.13.15-.2.38-.2.68Z"/><path d="M8.97,12.42l.52.16c-.08.29-.21.5-.39.64s-.42.21-.7.21c-.35,0-.64-.12-.86-.36-.22-.24-.34-.56-.34-.98,0-.44.11-.78.34-1.02s.52-.36.89-.36c.32,0,.58.09.78.29.12.11.21.27.27.48l-.53.12c-.03-.14-.1-.24-.19-.32-.1-.08-.22-.12-.36-.12-.19,0-.35.07-.47.21-.12.14-.18.37-.18.68,0,.33.06.57.18.71.12.14.27.21.47.21.14,0,.26-.04.36-.13s.17-.23.22-.42Z"/><path d="M12.32,13.38h-.58l-.23-.6h-1.05l-.22.6h-.56l1.02-2.63h.56l1.05,2.63ZM11.34,12.34l-.36-.98-.35.98h.72Z"/><path d="M12.61,13.38v-2.61h.53v2.17h1.32v.44h-1.85Z"/></svg>