<?xml version="1.0" encoding="UTF-8"?><svg id="Layer_3" xmlns="http://www.w3.org/2000/svg" viewBox="0 0 16.5 16.5"><defs><style>.cls-1,.cls-2,.cls-3{fill:none;stroke:#000;stroke-linecap:round;stroke-linejoin:round;}.cls-1,.cls-3{stroke-width:.71px;}.cls-2{stroke-width:.75px;}.cls-3{fill-rule:evenodd;}</style></defs><polyline class="cls-2" points="2.99 8.01 2.99 .74 11.03 .74 13.51 3.3 13.51 8.01"/><rect class="cls-2" x="1.1" y="8.25" width="14.3" height="7.19"/><polyline class="cls-2" points="13.16 3.3 11.03 3.3 11.03 1.33"/><polyline class="cls-3" points="9.99 3.58 11.37 5.31 9.99 6.93"/><polyline class="cls-3" points="6.76 3.58 5.39 5.31 6.76 6.93"/><line class="cls-1" x1="8.86" y1="3.42" x2="7.9" y2="6.99"/><path d="M2.68,12.54l.64-.06c.04.21.12.37.23.47s.28.15.47.15c.21,0,.37-.04.48-.13.11-.09.16-.19.16-.31,0-.08-.02-.14-.07-.2-.04-.05-.12-.1-.24-.14-.08-.03-.25-.07-.53-.14-.35-.09-.6-.19-.74-.32-.2-.18-.3-.4-.3-.65,0-.17.05-.32.14-.46.09-.14.23-.25.41-.33.18-.08.39-.11.64-.11.41,0,.71.09.92.27.21.18.31.42.32.72l-.66.03c-.03-.17-.09-.29-.18-.36-.09-.07-.23-.11-.42-.11s-.34.04-.45.12c-.07.05-.1.12-.1.2,0,.08.03.14.1.2.08.07.28.14.6.22s.55.15.71.23c.15.08.27.19.36.33.09.14.13.31.13.52,0,.19-.05.36-.15.52s-.25.28-.44.36c-.19.08-.42.12-.71.12-.41,0-.73-.09-.95-.28-.22-.19-.35-.47-.39-.83Z"/><path d="M5.88,13.59v-3.25h2.23v.55h-1.57v.77h1.36v.55h-1.36v1.38h-.66Z"/><path d="M9.38,13.59v-2.7h-.96v-.55h2.58v.55h-.96v2.7h-.66Z"/><path d="M11.42,13.59v-3.25h1.05c.4,0,.66.02.78.05.19.05.34.15.47.32.13.16.19.37.19.63,0,.2-.04.37-.11.5s-.16.24-.28.32c-.11.08-.23.13-.34.15-.16.03-.38.05-.68.05h-.43v1.22h-.66ZM12.07,10.9v.92h.36c.26,0,.43-.02.52-.05.09-.03.16-.09.21-.16.05-.07.07-.16.07-.25,0-.12-.03-.22-.1-.29-.07-.08-.16-.12-.26-.14-.08-.01-.24-.02-.47-.02h-.32Z"/></svg>